<svg xmlns="http://www.w3.org/2000/svg" version="1.1" xmlns:xlink="http://www.w3.org/1999/xlink" xmlns:svgjs="http://svgjs.com/svgjs" width="1440" height="560" preserveAspectRatio="none" viewBox="0 0 1440 560">
    <g mask="url(&quot;#SvgjsMask1065&quot;)" fill="none">
        <path d="M58.66 64.52 a51.63 51.63 0 1 0 103.26 0 a51.63 51.63 0 1 0 -103.26 0z" stroke="rgba(56, 161, 105, 1)"></path>
        <path d="M633.42 123.99L651.48 123.99L651.48 142.05L633.42 142.05z" fill="rgba(56, 161, 105, 1)"></path>
        <path d="M1138.13 375.09a25.89 25.89 0 1 0-39.19-33.84z" fill="rgba(56, 161, 105, 1)"></path>
        <path d="M1021.33 160.42L1059.82 160.42L1059.82 198.91L1021.33 198.91z" fill="rgba(56, 161, 105, 1)"></path>
        <path d="M97.74 384.72L109.11 384.72L109.11 400.07L97.74 400.07z" stroke="rgba(56, 161, 105, 1)"></path>
        <path d="M1370.29 417.3L1393.71 417.3L1393.71 440.72L1370.29 440.72z" stroke="rgba(56, 161, 105, 1)"></path>
        <path d="M530.57 202L547.27 202L547.27 224.62L530.57 224.62z" fill="rgba(20, 102, 211, 1)"></path>
        <path d="M982.27 6.43 a27.78 27.78 0 1 0 55.56 0 a27.78 27.78 0 1 0 -55.56 0z" stroke="rgba(56, 161, 105, 1)"></path>
        <path d="M519.08 42.87 a11.59 11.59 0 1 0 23.18 0 a11.59 11.59 0 1 0 -23.18 0z" stroke="rgba(20, 102, 211, 1)"></path>
        <path d="M366.4 337.12L378.23 337.12L378.23 360.05L366.4 360.05z" fill="rgba(56, 161, 105, 1)"></path>
        <path d="M1411.56 441.57L1433.57 441.57L1433.57 463.58L1411.56 463.58z" fill="rgba(20, 102, 211, 1)"></path>
        <path d="M635.66 332.01a1.38 1.38 0 1 0 0.64 2.68z" fill="rgba(56, 161, 105, 1)"></path>
        <path d="M30.37 352.24L55.81 352.24L55.81 377.68L30.37 377.68z" stroke="rgba(56, 161, 105, 1)"></path>
        <path d="M1054.73 407.91L1071.3 407.91L1071.3 445.18L1054.73 445.18z" stroke="rgba(56, 161, 105, 1)"></path>
        <path d="M800.59 122.3a46.83 46.83 0 1 0-77.17 53.08z" stroke="rgba(56, 161, 105, 1)"></path>
        <path d="M543.81 289.31L568.67 289.31L568.67 309.32L543.81 309.32z" stroke="rgba(20, 102, 211, 1)"></path>
        <path d="M352.99 262.65a9.19 9.19 0 1 0-13.93-11.99z" fill="rgba(56, 161, 105, 1)"></path>
        <path d="M1307.41 467.59L1341.25 467.59L1341.25 522.26L1307.41 522.26z" fill="rgba(20, 102, 211, 1)"></path>
        <path d="M163.27 207.4a7.03 7.03 0 1 0 14.06 0.34z" fill="rgba(20, 102, 211, 1)"></path>
        <path d="M531.59 91.87a24.94 24.94 0 1 0-20.37 45.53z" fill="rgba(56, 161, 105, 1)"></path>
        <path d="M395.68 470.24 a6.59 6.59 0 1 0 13.18 0 a6.59 6.59 0 1 0 -13.18 0z" stroke="rgba(20, 102, 211, 1)"></path>
        <path d="M1321.53 44.2L1343.44 44.2L1343.44 66.11L1321.53 66.11z" fill="rgba(56, 161, 105, 1)"></path>
        <path d="M903.43 470.81a37.98 37.98 0 1 0-56.79-50.45z" fill="rgba(56, 161, 105, 1)"></path>
        <path d="M1201.64 21.51L1214.97 21.51L1214.97 34.84L1201.64 34.84z" fill="rgba(56, 161, 105, 1)"></path>
        <path d="M234.57 171.13 a55.72 55.72 0 1 0 111.44 0 a55.72 55.72 0 1 0 -111.44 0z" stroke="rgba(20, 102, 211, 1)"></path>
        <path d="M180.68 121.52L186.2 121.52L186.2 128.26L180.68 128.26z" fill="rgba(56, 161, 105, 1)"></path>
        <path d="M968.19 535.81L989.43 535.81L989.43 543.53L968.19 543.53z" fill="rgba(56, 161, 105, 1)"></path>
        <path d="M993.68 539.49L1015.95 539.49L1015.95 561.76L993.68 561.76z" fill="rgba(56, 161, 105, 1)"></path>
        <path d="M55.27 343.61L109.44 343.61L109.44 371.23L55.27 371.23z" stroke="rgba(56, 161, 105, 1)"></path>
        <path d="M769.74 426.32a1.37 1.37 0 1 0 2.26 1.54z" fill="rgba(56, 161, 105, 1)"></path>
        <path d="M403.63 100.91L447.41 100.91L447.41 144.69L403.63 144.69z" stroke="rgba(20, 102, 211, 1)"></path>
        <path d="M12.95 528.49L56.56 528.49L56.56 580.2L12.95 580.2z" fill="rgba(20, 102, 211, 1)"></path>
        <path d="M-8.02 130.02 a11.05 11.05 0 1 0 22.1 0 a11.05 11.05 0 1 0 -22.1 0z" stroke="rgba(20, 102, 211, 1)"></path>
    </g>
    <defs>
        <mask id="SvgjsMask1065">
            <rect width="1440" height="560" fill="#ffffff"></rect>
        </mask>
    </defs>
</svg>
