<svg height="80" viewBox="0 0 512 512" xmlns="http://www.w3.org/2000/svg" fill="currentColor"><path d="M413.752 299.867v-85.655c0-42.132-16.41-81.746-46.208-111.543-.375-.375-.765-.731-1.143-1.101V44.186c0-8.773-7.113-15.886-15.886-15.886s-15.886 7.113-15.886 15.886v33.063c-49.912-29.069-110.425-26.784-157.256.173V44.186c0-8.773-7.113-15.886-15.886-15.886S145.6 35.412 145.6 44.186v56.992c-30.025 28.851-47.351 68.818-47.351 113.035v85.656c-24.231 15.814-38.92 42.592-38.92 72.051v25.642c0 47.497 38.641 86.139 86.14 86.139h221.063c47.498 0 86.14-38.641 86.14-86.139V371.92c0-29.463-14.694-56.244-38.92-72.053zM226.941 403.75c0 8.773-7.113 15.886-15.886 15.886s-15.886-7.113-15.886-15.886v-38.019c0-8.773 7.113-15.886 15.886-15.886s15.886 7.113 15.886 15.886v38.019zm89.891 0c0 8.773-7.113 15.886-15.886 15.886s-15.886-7.113-15.886-15.886v-38.019c0-8.773 7.113-15.886 15.886-15.886s15.886 7.113 15.886 15.886v38.019zm65.148-116.599c-21.822-3.943-246.365-1.013-251.958 0v-72.938c0-.469.02-.933.025-1.4 76.074 7.552 145.302-45.74 157.764-120.78 21.079 5.486 40.794 16.63 57.267 33.103 23.796 23.796 36.901 55.431 36.901 89.077v72.938zM82.552 137.791H15.886C7.113 137.791 0 144.904 0 153.677c0 37.878 29.337 69.01 66.477 71.915 0-15.218-1.531-47.938 16.075-87.801zM496.114 137.791h-66.578c16.333 37.052 15.987 66.669 15.987 87.802 37.14-2.905 66.477-34.038 66.477-71.915 0-8.774-7.112-15.887-15.886-15.887z" fill="currentColor"></path><circle cx="179.598" cy="240.431" r="21.015" fill="currentColor"></circle><circle cx="332.401" cy="240.431" r="21.015" fill="currentColor"></circle></svg>
