
<svg width="512" height="512" viewBox="0 0 512 512" fill="none" xmlns="http://www.w3.org/2000/svg">
<rect width="512" height="512" fill="url(#paint0_linear_94_39)"/>
<g filter="url(#filter0_dd_94_39)">
<path d="M216.368 256.196H140.472C131.244 256.196 125.469 246.214 130.069 238.214L233.965 57.5257C240.091 46.8727 256.368 51.2189 256.368 63.5073V216.196C256.368 238.288 238.459 256.196 216.368 256.196Z" fill="white"/>
<path d="M284 242L359.896 242C369.124 242 374.899 251.982 370.299 259.982L266.403 440.67C260.277 451.323 244 446.977 244 434.689L244 282C244 259.909 261.909 242 284 242Z" fill="white"/>
</g>
<defs>
<filter id="filter0_dd_94_39" x="108.454" y="51.4872" width="283.46" height="435.222" filterUnits="userSpaceOnUse" color-interpolation-filters="sRGB">
<feFlood flood-opacity="0" result="BackgroundImageFix"/>
<feColorMatrix in="SourceAlpha" type="matrix" values="0 0 0 0 0 0 0 0 0 0 0 0 0 0 0 0 0 0 127 0" result="hardAlpha"/>
<feMorphology radius="5" operator="erode" in="SourceAlpha" result="effect1_dropShadow_94_39"/>
<feOffset dy="20"/>
<feGaussianBlur stdDeviation="12.5"/>
<feColorMatrix type="matrix" values="0 0 0 0 0.176471 0 0 0 0 0.215686 0 0 0 0 0.282353 0 0 0 0.1 0"/>
<feBlend mode="normal" in2="BackgroundImageFix" result="effect1_dropShadow_94_39"/>
<feColorMatrix in="SourceAlpha" type="matrix" values="0 0 0 0 0 0 0 0 0 0 0 0 0 0 0 0 0 0 127 0" result="hardAlpha"/>
<feMorphology radius="5" operator="erode" in="SourceAlpha" result="effect2_dropShadow_94_39"/>
<feOffset dy="10"/>
<feGaussianBlur stdDeviation="5"/>
<feColorMatrix type="matrix" values="0 0 0 0 0.176471 0 0 0 0 0.215686 0 0 0 0 0.282353 0 0 0 0.04 0"/>
<feBlend mode="normal" in2="effect1_dropShadow_94_39" result="effect2_dropShadow_94_39"/>
<feBlend mode="normal" in="SourceGraphic" in2="effect2_dropShadow_94_39" result="shape"/>
</filter>
<linearGradient id="paint0_linear_94_39" x1="0" y1="0" x2="512" y2="512" gradientUnits="userSpaceOnUse">
<stop stop-color="#68D391"/>
<stop offset="1" stop-color="#4FD1C5"/>
</linearGradient>
</defs>
</svg>
